<svg id="Layer_1" data-name="Layer 1" xmlns="http://www.w3.org/2000/svg" viewBox="0 0 480.84 480.87"><defs><style>.cls-1{fill:#fff;}</style></defs><title>email</title><path class="cls-1" d="M160.89,339.51a13.15,13.15,0,0,1,2.75.82C174,346,184.3,351.76,194.56,357.59a5.6,5.6,0,0,1,2.31,2.92,210.51,210.51,0,0,0,66.57,98.75,210.23,210.23,0,0,0,210.77,34.26,5.38,5.38,0,0,0,.71-0.49L198.37,338.48l180.39-44.8L408.4,385.9l82.19-17.79,34.64,96.81c4.63-3.91,9.07-7.53,13.3-11.38,0.54-.49.28-2.28-0.09-3.29Q524.16,410.09,509.77,370c-0.63-1.76-1.23-3.54-1.94-5.58,7.35-1.61,14.51-3.2,21.67-4.75q35.57-7.7,71.16-15.34c1.61-.34,2.41-0.94,2.69-2.65,0.86-5.29,1.9-10.54,3-16.4L420.15,365.51,338.67,111.76,604.48,259.32c-0.76-3.65-1.26-6.8-2.08-9.86C582.84,175.92,537.7,125.34,466.17,99,437,88.3,406.53,85.19,375.57,88.54c-9,1-17.87,3-26.81,4.47a4.53,4.53,0,0,1-2.66-.09C334.52,86.57,323,80.13,310.73,73.3c6.31-2.12,11.91-4.17,17.61-5.87a243.47,243.47,0,0,1,90.53-9.22c99.61,8.28,186.17,79.66,211.87,180a231.87,231.87,0,0,1,6.84,75.8c-4.85,62.59-30,115.72-75.53,159-28.16,26.73-61.16,45.2-98.45,55.93A229.32,229.32,0,0,1,392,538.07c-66-2.27-122.3-26.89-168.17-74.38-33.65-34.84-54.27-76.58-63-124.23Z" transform="translate(-157.41 -57.33)"/><path class="cls-1" d="M373.44,277.07L190.1,322.57,315.68,97.19Z" transform="translate(-157.41 -57.33)"/><path class="cls-1" d="M160.9,339.46c-11.52-72.84,5.36-138.23,52-195.47,24.94-30.59,56.14-53.1,92.52-68.4,0.75-.31,1.53-0.54,2.8-1-1,1.92-1.8,3.4-2.6,4.84-7.49,13.45-15,26.91-22.53,40.3a12.32,12.32,0,0,1-3.55,3.88c-47.74,33.46-77.57,78.65-88.68,135.92-1.84,9.51-2.19,19.31-3.36,29a16.5,16.5,0,0,1-1.72,5.85c-8,14.48-16,28.89-24.08,43.33-0.32.57-.55,1.19-0.83,1.79A0.14,0.14,0,0,1,160.9,339.46Z" transform="translate(-157.41 -57.33)"/></svg>